<mxfile host="app.diagrams.net" modified="2021-04-05T14:44:47.993Z" agent="5.0 (Windows NT 10.0; Win64; x64) AppleWebKit/537.36 (KHTML, like Gecko) Chrome/89.0.4389.114 Safari/537.36" etag="6OsdP1bKCbgfOi_0GPXq" version="14.4.6" type="github">
  <diagram id="Fgm_h7O3pYdPoo2L2BLx" name="Page-1">
    <mxGraphModel dx="1038" dy="580" grid="1" gridSize="10" guides="1" tooltips="1" connect="1" arrows="1" fold="1" page="1" pageScale="1" pageWidth="827" pageHeight="1169" math="0" shadow="0">
      <root>
        <mxCell id="0" />
        <mxCell id="1" parent="0" />
        <mxCell id="Ti2Iviw0w2BretP2s4dY-1" value="&lt;font style=&quot;font-size: 20px&quot;&gt;T3&lt;/font&gt;" style="text;html=1;strokeColor=none;fillColor=none;align=center;verticalAlign=middle;whiteSpace=wrap;rounded=0;" vertex="1" parent="1">
          <mxGeometry x="240" y="330" width="60" height="40" as="geometry" />
        </mxCell>
        <mxCell id="Ti2Iviw0w2BretP2s4dY-12" style="edgeStyle=orthogonalEdgeStyle;rounded=0;orthogonalLoop=1;jettySize=auto;html=1;" edge="1" parent="1" source="Ti2Iviw0w2BretP2s4dY-2" target="Ti2Iviw0w2BretP2s4dY-4">
          <mxGeometry relative="1" as="geometry" />
        </mxCell>
        <mxCell id="Ti2Iviw0w2BretP2s4dY-28" style="edgeStyle=orthogonalEdgeStyle;rounded=0;orthogonalLoop=1;jettySize=auto;html=1;" edge="1" parent="1" source="Ti2Iviw0w2BretP2s4dY-2" target="Ti2Iviw0w2BretP2s4dY-1">
          <mxGeometry relative="1" as="geometry" />
        </mxCell>
        <mxCell id="Ti2Iviw0w2BretP2s4dY-2" value="&lt;font style=&quot;font-size: 20px&quot;&gt;T4&lt;/font&gt;" style="text;html=1;strokeColor=none;fillColor=none;align=center;verticalAlign=middle;whiteSpace=wrap;rounded=0;" vertex="1" parent="1">
          <mxGeometry x="457.5" y="320" width="75" height="60" as="geometry" />
        </mxCell>
        <mxCell id="Ti2Iviw0w2BretP2s4dY-10" style="edgeStyle=orthogonalEdgeStyle;rounded=0;orthogonalLoop=1;jettySize=auto;html=1;" edge="1" parent="1" source="Ti2Iviw0w2BretP2s4dY-3">
          <mxGeometry relative="1" as="geometry">
            <mxPoint x="450" y="162.5" as="targetPoint" />
          </mxGeometry>
        </mxCell>
        <mxCell id="Ti2Iviw0w2BretP2s4dY-22" style="edgeStyle=orthogonalEdgeStyle;rounded=0;orthogonalLoop=1;jettySize=auto;html=1;" edge="1" parent="1" source="Ti2Iviw0w2BretP2s4dY-3" target="Ti2Iviw0w2BretP2s4dY-1">
          <mxGeometry relative="1" as="geometry" />
        </mxCell>
        <mxCell id="Ti2Iviw0w2BretP2s4dY-3" value="&lt;font style=&quot;font-size: 20px&quot;&gt;T1&lt;/font&gt;" style="text;html=1;strokeColor=none;fillColor=none;align=center;verticalAlign=middle;whiteSpace=wrap;rounded=0;" vertex="1" parent="1">
          <mxGeometry x="230" y="145" width="80" height="35" as="geometry" />
        </mxCell>
        <mxCell id="Ti2Iviw0w2BretP2s4dY-14" style="edgeStyle=orthogonalEdgeStyle;rounded=0;orthogonalLoop=1;jettySize=auto;html=1;exitX=0.25;exitY=1;exitDx=0;exitDy=0;" edge="1" parent="1" source="Ti2Iviw0w2BretP2s4dY-4">
          <mxGeometry relative="1" as="geometry">
            <mxPoint x="478" y="310" as="targetPoint" />
          </mxGeometry>
        </mxCell>
        <mxCell id="Ti2Iviw0w2BretP2s4dY-19" style="edgeStyle=orthogonalEdgeStyle;rounded=0;orthogonalLoop=1;jettySize=auto;html=1;exitX=0;exitY=0.25;exitDx=0;exitDy=0;" edge="1" parent="1" source="Ti2Iviw0w2BretP2s4dY-4">
          <mxGeometry relative="1" as="geometry">
            <mxPoint x="320" y="150" as="targetPoint" />
          </mxGeometry>
        </mxCell>
        <mxCell id="Ti2Iviw0w2BretP2s4dY-4" value="&lt;font style=&quot;font-size: 20px&quot;&gt;T2&lt;/font&gt;" style="text;html=1;strokeColor=none;fillColor=none;align=center;verticalAlign=middle;whiteSpace=wrap;rounded=0;" vertex="1" parent="1">
          <mxGeometry x="460" y="140" width="70" height="40" as="geometry" />
        </mxCell>
        <mxCell id="Ti2Iviw0w2BretP2s4dY-11" value="(A,B)" style="text;html=1;strokeColor=none;fillColor=none;align=center;verticalAlign=middle;whiteSpace=wrap;rounded=0;" vertex="1" parent="1">
          <mxGeometry x="360" y="170" width="40" height="20" as="geometry" />
        </mxCell>
        <mxCell id="Ti2Iviw0w2BretP2s4dY-13" value="A" style="text;html=1;strokeColor=none;fillColor=none;align=center;verticalAlign=middle;whiteSpace=wrap;rounded=0;" vertex="1" parent="1">
          <mxGeometry x="490" y="240" width="40" height="20" as="geometry" />
        </mxCell>
        <mxCell id="Ti2Iviw0w2BretP2s4dY-15" value="B" style="text;html=1;strokeColor=none;fillColor=none;align=center;verticalAlign=middle;whiteSpace=wrap;rounded=0;" vertex="1" parent="1">
          <mxGeometry x="440" y="240" width="40" height="20" as="geometry" />
        </mxCell>
        <mxCell id="Ti2Iviw0w2BretP2s4dY-17" value="" style="endArrow=classic;html=1;exitX=0.86;exitY=1.109;exitDx=0;exitDy=0;exitPerimeter=0;" edge="1" parent="1" source="Ti2Iviw0w2BretP2s4dY-3" target="Ti2Iviw0w2BretP2s4dY-2">
          <mxGeometry width="50" height="50" relative="1" as="geometry">
            <mxPoint x="440" y="250" as="sourcePoint" />
            <mxPoint x="390" y="300" as="targetPoint" />
          </mxGeometry>
        </mxCell>
        <mxCell id="Ti2Iviw0w2BretP2s4dY-18" value="B" style="text;html=1;strokeColor=none;fillColor=none;align=center;verticalAlign=middle;whiteSpace=wrap;rounded=0;" vertex="1" parent="1">
          <mxGeometry x="360" y="230" width="40" height="20" as="geometry" />
        </mxCell>
        <mxCell id="Ti2Iviw0w2BretP2s4dY-21" value="A" style="text;html=1;strokeColor=none;fillColor=none;align=center;verticalAlign=middle;whiteSpace=wrap;rounded=0;" vertex="1" parent="1">
          <mxGeometry x="360" y="125" width="40" height="20" as="geometry" />
        </mxCell>
        <mxCell id="Ti2Iviw0w2BretP2s4dY-23" value="B" style="text;html=1;strokeColor=none;fillColor=none;align=center;verticalAlign=middle;whiteSpace=wrap;rounded=0;" vertex="1" parent="1">
          <mxGeometry x="270" y="240" width="40" height="20" as="geometry" />
        </mxCell>
        <mxCell id="Ti2Iviw0w2BretP2s4dY-24" value="" style="endArrow=classic;html=1;exitX=0.86;exitY=1.109;exitDx=0;exitDy=0;exitPerimeter=0;" edge="1" parent="1">
          <mxGeometry width="50" height="50" relative="1" as="geometry">
            <mxPoint x="450.78164094232324" y="330" as="sourcePoint" />
            <mxPoint x="289.99999999999994" y="193.81500000000005" as="targetPoint" />
          </mxGeometry>
        </mxCell>
        <mxCell id="Ti2Iviw0w2BretP2s4dY-25" value="B" style="text;html=1;strokeColor=none;fillColor=none;align=center;verticalAlign=middle;whiteSpace=wrap;rounded=0;" vertex="1" parent="1">
          <mxGeometry x="330" y="250" width="40" height="20" as="geometry" />
        </mxCell>
        <mxCell id="Ti2Iviw0w2BretP2s4dY-26" value="" style="endArrow=classic;html=1;entryX=1;entryY=0;entryDx=0;entryDy=0;exitX=0.25;exitY=1;exitDx=0;exitDy=0;" edge="1" parent="1" source="Ti2Iviw0w2BretP2s4dY-4" target="Ti2Iviw0w2BretP2s4dY-1">
          <mxGeometry width="50" height="50" relative="1" as="geometry">
            <mxPoint x="390" y="300" as="sourcePoint" />
            <mxPoint x="440" y="250" as="targetPoint" />
          </mxGeometry>
        </mxCell>
        <mxCell id="Ti2Iviw0w2BretP2s4dY-27" value="B" style="text;html=1;strokeColor=none;fillColor=none;align=center;verticalAlign=middle;whiteSpace=wrap;rounded=0;" vertex="1" parent="1">
          <mxGeometry x="414" y="200" width="40" height="20" as="geometry" />
        </mxCell>
        <mxCell id="Ti2Iviw0w2BretP2s4dY-29" value="B" style="text;html=1;strokeColor=none;fillColor=none;align=center;verticalAlign=middle;whiteSpace=wrap;rounded=0;" vertex="1" parent="1">
          <mxGeometry x="360" y="330" width="40" height="20" as="geometry" />
        </mxCell>
      </root>
    </mxGraphModel>
  </diagram>
</mxfile>
